<?xml version="1.0" standalone="no"?>
<!DOCTYPE svg PUBLIC "-//W3C//DTD SVG 20010904//EN"
 "http://www.w3.org/TR/2001/REC-SVG-20010904/DTD/svg10.dtd">
<svg version="1.0" xmlns="http://www.w3.org/2000/svg"
 width="1272.000000pt" height="641.000000pt" viewBox="0 0 1272.000000 641.000000"
 preserveAspectRatio="xMidYMid meet">
<metadata>
Created by potrace 1.16, written by Peter Selinger 2001-2019
</metadata>
<g transform="translate(0.000000,641.000000) scale(0.100000,-0.100000)"
fill="#000000" stroke="none">
<path d="M539 6076 c-77 -27 -156 -104 -195 -189 -66 -146 9 -332 165 -409 67
-33 196 -33 264 0 109 54 178 158 185 278 4 62 0 80 -23 133 -37 82 -124 164
-197 186 -62 18 -150 19 -199 1z"/>
<path d="M1817 6076 c-175 -63 -267 -279 -188 -438 29 -57 101 -128 161 -160
66 -34 195 -33 264 2 111 56 178 157 184 276 4 62 0 81 -23 133 -37 82 -124
164 -197 186 -63 18 -150 19 -201 1z"/>
<path d="M3099 6076 c-77 -27 -156 -104 -195 -189 -66 -146 9 -332 165 -409
67 -33 196 -33 264 0 109 54 178 158 185 278 4 62 0 80 -23 133 -37 82 -124
164 -197 186 -62 18 -150 19 -199 1z"/>
<path d="M4379 6076 c-77 -27 -156 -104 -195 -189 -66 -146 9 -332 165 -409
67 -33 196 -33 264 0 109 54 178 158 185 278 4 62 0 80 -23 133 -37 82 -124
164 -197 186 -62 18 -150 19 -199 1z"/>
<path d="M5659 6076 c-77 -27 -156 -104 -195 -189 -66 -146 9 -332 165 -409
67 -33 196 -33 264 0 109 54 178 158 185 278 4 62 0 80 -23 133 -37 82 -124
164 -197 186 -62 18 -150 19 -199 1z"/>
<path d="M6939 6076 c-77 -27 -156 -104 -195 -189 -66 -146 9 -332 165 -409
67 -33 196 -33 264 0 109 54 178 158 185 278 4 62 0 80 -23 133 -37 82 -124
164 -197 186 -62 18 -150 19 -199 1z"/>
<path d="M8219 6076 c-77 -27 -156 -104 -195 -189 -66 -146 9 -332 165 -409
67 -33 196 -33 264 0 109 54 178 158 185 278 4 62 0 80 -23 133 -37 82 -124
164 -197 186 -62 18 -150 19 -199 1z"/>
<path d="M9499 6076 c-77 -27 -156 -104 -195 -189 -66 -146 9 -332 165 -409
67 -33 196 -33 264 0 109 54 178 158 185 278 4 62 0 80 -23 133 -37 82 -124
164 -197 186 -62 18 -150 19 -199 1z"/>
<path d="M10763 6071 c-66 -31 -142 -108 -174 -176 -55 -115 -35 -235 56 -333
77 -83 129 -107 235 -107 104 0 157 22 230 97 67 68 94 139 88 233 -8 115 -76
217 -183 273 -69 35 -191 42 -252 13z"/>
<path d="M12043 6071 c-66 -31 -142 -108 -174 -176 -55 -115 -35 -235 56 -333
77 -83 129 -107 235 -107 104 0 157 22 230 97 67 68 94 139 88 233 -8 115 -76
217 -183 273 -69 35 -191 42 -252 13z"/>
<path d="M539 4796 c-77 -27 -156 -104 -195 -189 -66 -146 9 -332 165 -409 67
-33 196 -33 264 0 109 54 178 158 185 278 4 62 0 80 -23 133 -37 82 -124 164
-197 186 -62 18 -150 19 -199 1z"/>
<path d="M1817 4796 c-175 -63 -267 -279 -188 -438 29 -57 101 -128 161 -160
66 -34 195 -33 264 2 111 56 178 157 184 276 4 62 0 81 -23 133 -37 82 -124
164 -197 186 -63 18 -150 19 -201 1z"/>
<path d="M3099 4796 c-77 -27 -156 -104 -195 -189 -66 -146 9 -332 165 -409
67 -33 196 -33 264 0 109 54 178 158 185 278 4 62 0 80 -23 133 -37 82 -124
164 -197 186 -62 18 -150 19 -199 1z"/>
<path d="M4379 4796 c-77 -27 -156 -104 -195 -189 -66 -146 9 -332 165 -409
67 -33 196 -33 264 0 109 54 178 158 185 278 4 62 0 80 -23 133 -37 82 -124
164 -197 186 -62 18 -150 19 -199 1z"/>
<path d="M5659 4796 c-77 -27 -156 -104 -195 -189 -66 -146 9 -332 165 -409
67 -33 196 -33 264 0 109 54 178 158 185 278 4 62 0 80 -23 133 -37 82 -124
164 -197 186 -62 18 -150 19 -199 1z"/>
<path d="M6939 4796 c-77 -27 -156 -104 -195 -189 -66 -146 9 -332 165 -409
67 -33 196 -33 264 0 109 54 178 158 185 278 4 62 0 80 -23 133 -37 82 -124
164 -197 186 -62 18 -150 19 -199 1z"/>
<path d="M8219 4796 c-77 -27 -156 -104 -195 -189 -66 -146 9 -332 165 -409
67 -33 196 -33 264 0 109 54 178 158 185 278 4 62 0 80 -23 133 -37 82 -124
164 -197 186 -62 18 -150 19 -199 1z"/>
<path d="M9499 4796 c-77 -27 -156 -104 -195 -189 -66 -146 9 -332 165 -409
67 -33 196 -33 264 0 109 54 178 158 185 278 4 62 0 80 -23 133 -37 82 -124
164 -197 186 -62 18 -150 19 -199 1z"/>
<path d="M10763 4791 c-66 -31 -142 -108 -174 -176 -55 -115 -35 -235 56 -333
77 -83 129 -107 235 -107 104 0 157 22 230 97 67 68 94 139 88 233 -8 115 -76
217 -183 273 -69 35 -191 42 -252 13z"/>
<path d="M12043 4791 c-66 -31 -142 -108 -174 -176 -55 -115 -35 -235 56 -333
77 -83 129 -107 235 -107 104 0 157 22 230 97 67 68 94 139 88 233 -8 115 -76
217 -183 273 -69 35 -191 42 -252 13z"/>
<path d="M539 3516 c-77 -27 -156 -104 -195 -189 -66 -146 9 -332 165 -409 67
-33 196 -33 264 0 109 54 178 158 185 278 4 62 0 80 -23 133 -37 82 -124 164
-197 186 -62 18 -150 19 -199 1z"/>
<path d="M1819 3516 c-77 -27 -156 -104 -195 -189 -66 -146 9 -332 165 -409
67 -33 196 -33 264 0 109 54 178 158 185 278 4 62 0 80 -23 133 -37 82 -124
164 -197 186 -62 18 -150 19 -199 1z"/>
<path d="M3099 3516 c-77 -27 -156 -104 -195 -189 -66 -146 9 -332 165 -409
67 -33 196 -33 264 0 109 54 178 158 185 278 4 62 0 80 -23 133 -37 82 -124
164 -197 186 -62 18 -150 19 -199 1z"/>
<path d="M4379 3516 c-77 -27 -156 -104 -195 -189 -66 -146 9 -332 165 -409
67 -33 196 -33 264 0 109 54 178 158 185 278 4 62 0 80 -23 133 -37 82 -124
164 -197 186 -62 18 -150 19 -199 1z"/>
<path d="M5659 3516 c-77 -27 -156 -104 -195 -189 -66 -146 9 -332 165 -409
67 -33 196 -33 264 0 109 54 178 158 185 278 4 62 0 80 -23 133 -37 82 -124
164 -197 186 -62 18 -150 19 -199 1z"/>
<path d="M6939 3516 c-77 -27 -156 -104 -195 -189 -66 -146 9 -332 165 -409
67 -33 196 -33 264 0 109 54 178 158 185 278 4 62 0 80 -23 133 -37 82 -124
164 -197 186 -62 18 -150 19 -199 1z"/>
<path d="M8219 3516 c-77 -27 -156 -104 -195 -189 -66 -146 9 -332 165 -409
67 -33 196 -33 264 0 109 54 178 158 185 278 4 62 0 80 -23 133 -37 82 -124
164 -197 186 -62 18 -150 19 -199 1z"/>
<path d="M9499 3516 c-77 -27 -156 -104 -195 -189 -66 -146 9 -332 165 -409
67 -33 196 -33 264 0 109 54 178 158 185 278 4 62 0 80 -23 133 -37 82 -124
164 -197 186 -62 18 -150 19 -199 1z"/>
<path d="M10779 3516 c-77 -27 -156 -104 -195 -189 -66 -146 9 -332 165 -409
67 -33 196 -33 264 0 109 54 178 158 185 278 4 62 0 80 -23 133 -37 82 -124
164 -197 186 -62 18 -150 19 -199 1z"/>
<path d="M12059 3516 c-77 -27 -156 -104 -195 -189 -66 -146 9 -332 165 -409
67 -33 196 -33 264 0 109 54 178 158 185 278 4 62 0 80 -23 133 -37 82 -124
164 -197 186 -62 18 -150 19 -199 1z"/>
<path d="M539 2236 c-77 -27 -156 -104 -195 -189 -66 -146 9 -332 165 -409 67
-33 196 -33 264 0 109 54 178 158 185 278 4 62 0 80 -23 133 -37 82 -124 164
-197 186 -62 18 -150 19 -199 1z"/>
<path d="M1819 2236 c-77 -27 -156 -104 -195 -189 -66 -146 9 -332 165 -409
67 -33 196 -33 264 0 109 54 178 158 185 278 4 62 0 80 -23 133 -37 82 -124
164 -197 186 -62 18 -150 19 -199 1z"/>
<path d="M3099 2236 c-77 -27 -156 -104 -195 -189 -66 -146 9 -332 165 -409
67 -33 196 -33 264 0 109 54 178 158 185 278 4 62 0 80 -23 133 -37 82 -124
164 -197 186 -62 18 -150 19 -199 1z"/>
<path d="M4379 2236 c-77 -27 -156 -104 -195 -189 -66 -146 9 -332 165 -409
67 -33 196 -33 264 0 109 54 178 158 185 278 4 62 0 80 -23 133 -37 82 -124
164 -197 186 -62 18 -150 19 -199 1z"/>
<path d="M5659 2236 c-77 -27 -156 -104 -195 -189 -66 -146 9 -332 165 -409
67 -33 196 -33 264 0 109 54 178 158 185 278 4 62 0 80 -23 133 -37 82 -124
164 -197 186 -62 18 -150 19 -199 1z"/>
<path d="M6939 2236 c-77 -27 -156 -104 -195 -189 -66 -146 9 -332 165 -409
67 -33 196 -33 264 0 109 54 178 158 185 278 4 62 0 80 -23 133 -37 82 -124
164 -197 186 -62 18 -150 19 -199 1z"/>
<path d="M8219 2236 c-77 -27 -156 -104 -195 -189 -66 -146 9 -332 165 -409
67 -33 196 -33 264 0 109 54 178 158 185 278 4 62 0 80 -23 133 -37 82 -124
164 -197 186 -62 18 -150 19 -199 1z"/>
<path d="M9499 2236 c-77 -27 -156 -104 -195 -189 -66 -146 9 -332 165 -409
67 -33 196 -33 264 0 109 54 178 158 185 278 4 62 0 80 -23 133 -37 82 -124
164 -197 186 -62 18 -150 19 -199 1z"/>
<path d="M10779 2236 c-77 -27 -156 -104 -195 -189 -66 -146 9 -332 165 -409
67 -33 196 -33 264 0 109 54 178 158 185 278 4 62 0 80 -23 133 -37 82 -124
164 -197 186 -62 18 -150 19 -199 1z"/>
<path d="M12059 2236 c-77 -27 -156 -104 -195 -189 -66 -146 9 -332 165 -409
67 -33 196 -33 264 0 109 54 178 158 185 278 4 62 0 80 -23 133 -37 82 -124
164 -197 186 -62 18 -150 19 -199 1z"/>
<path d="M539 956 c-77 -27 -156 -104 -195 -189 -66 -146 9 -332 165 -409 67
-33 196 -33 264 0 109 54 178 158 185 278 4 62 0 80 -23 133 -37 82 -124 164
-197 186 -62 18 -150 19 -199 1z"/>
<path d="M1819 956 c-77 -27 -156 -104 -195 -189 -66 -146 9 -332 165 -409 67
-33 196 -33 264 0 109 54 178 158 185 278 4 62 0 80 -23 133 -37 82 -124 164
-197 186 -62 18 -150 19 -199 1z"/>
<path d="M3099 956 c-77 -27 -156 -104 -195 -189 -66 -146 9 -332 165 -409 67
-33 196 -33 264 0 109 54 178 158 185 278 4 62 0 80 -23 133 -37 82 -124 164
-197 186 -62 18 -150 19 -199 1z"/>
<path d="M4379 956 c-77 -27 -156 -104 -195 -189 -66 -146 9 -332 165 -409 67
-33 196 -33 264 0 109 54 178 158 185 278 4 62 0 80 -23 133 -37 82 -124 164
-197 186 -62 18 -150 19 -199 1z"/>
<path d="M5659 956 c-77 -27 -156 -104 -195 -189 -66 -146 9 -332 165 -409 67
-33 196 -33 264 0 109 54 178 158 185 278 4 62 0 80 -23 133 -37 82 -124 164
-197 186 -62 18 -150 19 -199 1z"/>
<path d="M6939 956 c-77 -27 -156 -104 -195 -189 -66 -146 9 -332 165 -409 67
-33 196 -33 264 0 109 54 178 158 185 278 4 62 0 80 -23 133 -37 82 -124 164
-197 186 -62 18 -150 19 -199 1z"/>
<path d="M8219 956 c-77 -27 -156 -104 -195 -189 -66 -146 9 -332 165 -409 67
-33 196 -33 264 0 109 54 178 158 185 278 4 62 0 80 -23 133 -37 82 -124 164
-197 186 -62 18 -150 19 -199 1z"/>
<path d="M9499 956 c-77 -27 -156 -104 -195 -189 -66 -146 9 -332 165 -409 67
-33 196 -33 264 0 109 54 178 158 185 278 4 62 0 80 -23 133 -37 82 -124 164
-197 186 -62 18 -150 19 -199 1z"/>
<path d="M10779 956 c-77 -27 -156 -104 -195 -189 -66 -146 9 -332 165 -409
67 -33 196 -33 264 0 109 54 178 158 185 278 4 62 0 80 -23 133 -37 82 -124
164 -197 186 -62 18 -150 19 -199 1z"/>
<path d="M12059 956 c-77 -27 -156 -104 -195 -189 -66 -146 9 -332 165 -409
67 -33 196 -33 264 0 109 54 178 158 185 278 4 62 0 80 -23 133 -37 82 -124
164 -197 186 -62 18 -150 19 -199 1z"/>
</g>
</svg>
